<?xml version="1.0" encoding="utf-8"?>
<!-- Generator: Adobe Illustrator 25.0.0, SVG Export Plug-In . SVG Version: 6.00 Build 0)  -->
<svg version="1.1" id="Layer_1" xmlns="http://www.w3.org/2000/svg" xmlns:xlink="http://www.w3.org/1999/xlink" x="0px" y="0px"
	 viewBox="0 0 49 47" style="enable-background:new 0 0 49 47;" xml:space="preserve">
<style type="text/css">
	.st0{fill:#1479EC;}
</style>
<path class="st0" d="M24.5,1C11.5,1,1,11.3,1,24.1c0,9,5.3,17.2,13.5,21c0.8,0.4,1.8,0.1,2.3-0.8c0.1-0.2,0.2-0.5,0.2-0.7V24.1
	c0-4.1,3.4-7.5,7.6-7.5s7.6,3.4,7.6,7.5c0.1,0.9,0.8,1.7,1.8,1.6c0.9-0.1,1.6-0.7,1.6-1.6c0.3-6-4.4-11.1-10.4-11.4
	C19,12.4,13.8,17,13.5,22.9c0,0.4,0,0.8,0,1.1v16.6c-9.3-6-11.9-18.3-5.8-27.4c6.1-9.2,18.5-11.7,27.8-5.7c9.3,6,11.9,18.3,5.8,27.4
	c-2,3.1-4.9,5.5-8.2,7c-0.8,0.4-1.2,1.4-0.7,2.3c0.4,0.8,1.4,1.1,2.2,0.8c11.8-5.4,16.8-19.2,11.2-30.8C41.9,6.1,33.6,1,24.5,1z"/>
<path class="st0" d="M24.1,28.6c-2.2,0-4.1,1.9-4.1,4.3s1.9,4.3,4.1,4.3c2.2,0,4-1.9,4-4.3S26.4,28.6,24.1,28.6z"/>
</svg>
