<svg id="Layer_2" data-name="Layer 2" xmlns="http://www.w3.org/2000/svg" viewBox="0 0 114.61 63.95"><defs><style>.cls-1{opacity:0.97;}</style></defs><path class="cls-1" d="M43.31,112H56.24V66h3.41s2.65,0,3.48.64,25.58,31.3,30.2,37a13.33,13.33,0,0,0,1.9,1.93c4.08,3.32,18.11,12.83,31.74-.47a14.48,14.48,0,0,0,2.45-3.12,16.87,16.87,0,0,0,2.52-8.59c0-.64.08-3.34.07-4l-.11-29.05h5.4V48.05h-34v9.52a2.87,2.87,0,0,0,2.87,2.87h13V93.5a5.09,5.09,0,0,1-1.77,3.87c-7.42,6.28-15.85,1.14-15.85-6V51.5a3.45,3.45,0,0,0-3.45-3.45H89v17.3a5.36,5.36,0,0,1-.1,1.06c-.34,1.73-1.72,6.36-6.44,3.72a1.24,1.24,0,0,1-.35-.3L68.88,52.59S65.81,48.12,55,48.05s-32.26,0-32.26,0v12.2H43.31Z" transform="translate(-22.7 -48.03)"/></svg>